<svg xmlns="http://www.w3.org/2000/svg" viewBox="0 0 528.83 63.21"><defs><style>.cls-1{fill:#fff;}</style></defs><g id="레이어_2" data-name="레이어 2"><g id="Lockup"><path class="cls-1" d="M51.48,46.37a34.85,34.85,0,0,1-4.38,9c-2.64,3.85-5.37,7.69-9.68,7.77S31.83,60.62,27,60.62s-6.36,2.43-10.36,2.59c-4.16.16-7.33-4.17-10-8C1.22,47.36-2.93,33,2.65,23.36a15.46,15.46,0,0,1,13.07-7.93c4.09-.07,7.94,2.75,10.44,2.75s7.17-3.4,12.1-2.9a14.78,14.78,0,0,1,11.56,6.27c-.3.19-6.91,4-6.83,12a13.94,13.94,0,0,0,8.49,12.79M35,10.09A13.88,13.88,0,0,0,38.32,0,14.13,14.13,0,0,0,29,4.79c-2.05,2.36-3.84,6.15-3.36,9.77C29.2,14.84,32.82,12.76,35,10.09Z"/><path class="cls-1" d="M79,26.68a7.74,7.74,0,0,1,8.12,8.1,7.83,7.83,0,0,1-8.24,8.13h-5.3v8.43H69.74V26.68Zm-5.42,13H78c3.34,0,5.23-1.8,5.23-4.91S81.3,29.91,78,29.91H73.57Z"/><path class="cls-1" d="M89.84,33.36h3.52v3.06h.08a4.29,4.29,0,0,1,4.33-3.25,5.49,5.49,0,0,1,1.26.14v3.45a5.18,5.18,0,0,0-1.66-.22c-2.37,0-3.84,1.6-3.84,4.13V51.34H89.84Z"/><path class="cls-1" d="M100,42.35c0-5.66,3.33-9.22,8.53-9.22s8.53,3.56,8.53,9.22-3.3,9.21-8.53,9.21S100,48,100,42.35Zm13.3,0c0-3.88-1.78-6.17-4.77-6.17s-4.77,2.3-4.77,6.17,1.78,6.17,4.77,6.17S113.29,46.24,113.29,42.35Z"/><path class="cls-1" d="M121.33,36.28h-2.48V33.36h2.48V31.73c0-3.38,1.52-4.83,5.23-4.83a11.12,11.12,0,0,1,1.86.15v2.79a7.55,7.55,0,0,0-1.33-.12c-1.47,0-2.09.63-2.1,2.13v1.51h3.45v2.92H125V51.34h-3.71Z"/><path class="cls-1" d="M146.09,46.05c-.49,3.27-3.67,5.51-7.74,5.51-5.23,0-8.48-3.51-8.48-9.13s3.27-9.3,8.33-9.3,8.1,3.42,8.1,8.87v1.27H133.6v.22c0,3.08,1.93,5.09,4.84,5.09,2.05,0,3.65-1,4.15-2.53Zm-12.47-5.36h9c-.09-2.75-1.85-4.56-4.41-4.56A4.54,4.54,0,0,0,133.62,40.69Z"/><path class="cls-1" d="M156,33.15c4,0,6.84,2.21,6.92,5.39h-3.47C159.34,37,158,36,155.94,36s-3.33.92-3.33,2.33c0,1.07.89,1.79,2.75,2.25l3,.7c3.63.87,5,2.21,5,4.84,0,3.25-3.07,5.47-7.46,5.47-4.24,0-7.1-2.17-7.37-5.45h3.66c.25,1.72,1.64,2.65,3.88,2.65s3.59-.91,3.59-2.35c0-1.11-.69-1.71-2.57-2.18l-3.21-.79C150.64,42.65,149,41,149,38.5,149,35.32,151.86,33.15,156,33.15Z"/><path class="cls-1" d="M173.31,33.15c4,0,6.84,2.21,6.92,5.39h-3.47c-.15-1.59-1.5-2.57-3.55-2.57s-3.33.92-3.33,2.33c0,1.07.89,1.79,2.75,2.25l3,.7c3.63.87,5,2.21,5,4.84,0,3.25-3.07,5.47-7.46,5.47s-7.1-2.17-7.37-5.45h3.66c.25,1.72,1.64,2.65,3.88,2.65s3.58-.91,3.58-2.35c0-1.11-.68-1.71-2.56-2.18l-3.21-.79c-3.25-.79-4.89-2.44-4.89-4.94C166.27,35.32,169.12,33.15,173.31,33.15Z"/><path class="cls-1" d="M183.69,28.62a2.15,2.15,0,1,1,2.14,2.11A2.12,2.12,0,0,1,183.69,28.62Zm.29,4.74h3.7v18H184Z"/><path class="cls-1" d="M190.65,42.35c0-5.66,3.33-9.22,8.53-9.22s8.52,3.56,8.52,9.22-3.29,9.21-8.52,9.21S190.65,48,190.65,42.35Zm13.3,0c0-3.88-1.78-6.17-4.77-6.17s-4.77,2.3-4.77,6.17,1.78,6.17,4.77,6.17S204,46.24,204,42.35Z"/><path class="cls-1" d="M210.73,33.36h3.52v3.06h.09A5.75,5.75,0,0,1,220,33.15c4,0,6.23,2.55,6.23,6.67V51.34h-3.7V40.53c0-2.7-1.25-4.2-3.85-4.2s-4.25,1.88-4.25,4.65V51.34h-3.7Z"/><path class="cls-1" d="M229.35,46.19c0-3.14,2.41-5,6.89-5.26l4.79-.28V39.29c0-2-1.35-3.13-3.7-3.13-1.93,0-3.35,1-3.64,2.53h-3.45c.1-3.21,3.11-5.56,7.2-5.56,4.41,0,7.26,2.31,7.26,5.88V51.34h-3.54v-3h-.08a6.4,6.4,0,0,1-5.68,3.21C231.83,51.59,229.35,49.39,229.35,46.19ZM241,44.6V43.22l-4.31.27c-2.39.14-3.66,1.06-3.66,2.62s1.32,2.56,3.37,2.56C239,48.67,241,46.93,241,44.6Z"/><path class="cls-1" d="M248.76,26.68h3.69V51.34h-3.69Z"/><path class="cls-1" d="M279.79,51.34H264.48V26.68h3.83V48h11.48Z"/><path class="cls-1" d="M297.52,46.05c-.5,3.27-3.68,5.51-7.74,5.51-5.23,0-8.48-3.51-8.48-9.13s3.26-9.3,8.32-9.3,8.1,3.42,8.1,8.87v1.27H285v.22c0,3.08,1.93,5.09,4.83,5.09,2.05,0,3.66-1,4.16-2.53ZM285,40.69h9c-.08-2.75-1.84-4.56-4.41-4.56A4.55,4.55,0,0,0,285,40.69Z"/><path class="cls-1" d="M300.14,46.19c0-3.14,2.41-5,6.89-5.26l4.78-.28V39.29c0-2-1.35-3.13-3.69-3.13-1.93,0-3.35,1-3.64,2.53H301c.1-3.21,3.11-5.56,7.2-5.56,4.4,0,7.26,2.31,7.26,5.88V51.34H312v-3h-.08a6.4,6.4,0,0,1-5.68,3.21C302.62,51.59,300.14,49.39,300.14,46.19Zm11.67-1.59V43.22l-4.3.27c-2.39.14-3.66,1.06-3.66,2.62s1.32,2.56,3.37,2.56C309.83,48.67,311.81,46.93,311.81,44.6Z"/><path class="cls-1" d="M319.41,33.36h3.52v3.06H323a4.27,4.27,0,0,1,4.32-3.25,5.49,5.49,0,0,1,1.26.14v3.45a5.11,5.11,0,0,0-1.65-.22c-2.38,0-3.85,1.6-3.85,4.13V51.34h-3.69Z"/><path class="cls-1" d="M331.25,33.36h3.52v3.06h.08a5.75,5.75,0,0,1,5.66-3.27c4,0,6.24,2.55,6.24,6.67V51.34H343V40.53c0-2.7-1.25-4.2-3.85-4.2s-4.25,1.88-4.25,4.65V51.34h-3.69Z"/><path class="cls-1" d="M350.48,28.62a2.15,2.15,0,1,1,2.14,2.11A2.12,2.12,0,0,1,350.48,28.62Zm.29,4.74h3.69v18h-3.69Z"/><path class="cls-1" d="M358.59,33.36h3.52v3.06h.08a5.75,5.75,0,0,1,5.66-3.27c4,0,6.24,2.55,6.24,6.67V51.34h-3.71V40.53c0-2.7-1.25-4.2-3.84-4.2s-4.26,1.88-4.26,4.65V51.34h-3.69Z"/><path class="cls-1" d="M377.49,52.74h3.71c.53,1.5,2.17,2.49,4.27,2.49,2.89,0,4.6-1.64,4.6-4.1v-3H390a6.16,6.16,0,0,1-5.69,3.11c-4.48,0-7.47-3.52-7.47-9s3-9.11,7.55-9.11a6.32,6.32,0,0,1,5.73,3.18h.07v-3h3.59V51c0,4.29-3.32,7.09-8.45,7.09C381.1,58.1,378,55.85,377.49,52.74ZM390.08,42.3c0-3.58-1.89-6-4.78-6s-4.68,2.35-4.68,6,1.84,5.93,4.68,5.93S390.08,45.88,390.08,42.3Z"/><path class="cls-1" d="M414.9,26.68a7.74,7.74,0,0,1,8.12,8.1,7.83,7.83,0,0,1-8.24,8.13h-5.3v8.43h-3.83V26.68Zm-5.42,13h4.39c3.34,0,5.23-1.8,5.23-4.91s-1.89-4.88-5.21-4.88h-4.41Z"/><path class="cls-1" d="M425.75,33.36h3.52v3.06h.08a4.29,4.29,0,0,1,4.33-3.25,5.49,5.49,0,0,1,1.26.14v3.45a5.18,5.18,0,0,0-1.66-.22c-2.37,0-3.84,1.6-3.84,4.13V51.34h-3.69Z"/><path class="cls-1" d="M436,42.35c0-5.66,3.33-9.22,8.53-9.22s8.52,3.56,8.52,9.22-3.29,9.21-8.52,9.21S436,48,436,42.35Zm13.29,0c0-3.88-1.77-6.17-4.76-6.17s-4.77,2.3-4.77,6.17,1.78,6.17,4.77,6.17S449.3,46.24,449.3,42.35Z"/><path class="cls-1" d="M464.4,51.34h-4l-6.48-18h3.93l4.51,14.37h.07L467,33.36h3.86Z"/><path class="cls-1" d="M473.14,28.62a2.15,2.15,0,1,1,2.14,2.11A2.12,2.12,0,0,1,473.14,28.62Zm.29,4.74h3.7v18h-3.7Z"/><path class="cls-1" d="M480.45,42.35c0-5.56,3.06-9.18,7.52-9.18a6.08,6.08,0,0,1,5.64,3.18h.07V26.68h3.7V51.34H493.8V48.28h-.07A6.13,6.13,0,0,1,488,51.52C483.51,51.52,480.45,47.9,480.45,42.35Zm3.78,0c0,3.69,1.88,6,4.75,6s4.73-2.4,4.73-6-1.9-6-4.73-6S484.23,38.69,484.23,42.35Z"/><path class="cls-1" d="M516.23,46.05c-.5,3.27-3.68,5.51-7.75,5.51-5.22,0-8.47-3.51-8.47-9.13s3.26-9.3,8.32-9.3,8.1,3.42,8.1,8.87v1.27h-12.7v.22c0,3.08,1.94,5.09,4.84,5.09,2.05,0,3.66-1,4.15-2.53Zm-12.48-5.36h9c-.09-2.75-1.85-4.56-4.41-4.56A4.55,4.55,0,0,0,503.75,40.69Z"/><path class="cls-1" d="M519.64,33.36h3.52v3.06h.08a4.29,4.29,0,0,1,4.33-3.25,5.56,5.56,0,0,1,1.26.14v3.45a5.18,5.18,0,0,0-1.66-.22c-2.37,0-3.84,1.6-3.84,4.13V51.34h-3.69Z"/></g></g></svg>