<svg xmlns="http://www.w3.org/2000/svg" viewBox="0 0 239.08 36.97"><defs><style>.cls-1{fill:#265c60;}</style></defs><g id="레이어_2" data-name="레이어 2"><g id="Layer_1" data-name="Layer 1"><path class="cls-1" d="M83.56,7.08,85.66,0H68.56a7.08,7.08,0,0,0-7.08,7.08V37h22.1l2.08-7.08h-16V21.51H82.53l2.11-7.09h-15V7.08Z"/><path class="cls-1" d="M173.17,7.08V37h8.13V0h-1A7.08,7.08,0,0,0,173.17,7.08Z"/><path class="cls-1" d="M22.1,7.08,24.18,0H7.08A7.08,7.08,0,0,0,0,7.08V37H8.13V21.51H21.05l2.09-7.09h-15V7.08Z"/><path class="cls-1" d="M196.41,0h-1a7.08,7.08,0,0,0-7.08,7.08V37h21.05l2.09-7.08h-15Z"/><path class="cls-1" d="M224.06,29.89V0h-1a7.08,7.08,0,0,0-7.08,7.08V37H237l2.09-7.08Z"/><path class="cls-1" d="M113.43,7.08,115.54,0H98.44a7.08,7.08,0,0,0-7.09,7.08V37h22.1l2.09-7.08H99.48V21.51h12.84l2.11-7.09h-15V7.08Z"/><path class="cls-1" d="M159.09,5l-7,20.37-4.71-13.18h0L151.57,0h-2.84a7.41,7.41,0,0,0-7,5l-6.9,20.12L126.22,0h0a5.81,5.81,0,0,0-5.49,7.69l10,29.28h8.13l4.51-13.18L148.13,37h8.12L168.93,0h-2.85A7.39,7.39,0,0,0,159.09,5Z"/><path class="cls-1" d="M55.79,11.83C55.79,4.36,51.33,0,43,0H36.88A8.05,8.05,0,0,0,28.83,8.1V37H37V23.62h6.72l4,13.35h8.13L51,20.84A11,11,0,0,0,55.79,11.83ZM42.34,16.55H37V7.12h5.38c4.67,0,6.33,2,6.33,4.71S47,16.55,42.34,16.55Z"/></g></g></svg>